<svg width="30" height="30" viewBox="0 0 30 30" fill="none" xmlns="http://www.w3.org/2000/svg">
<path d="M4.93467 4.93469L24.6734 24.6734M20.3555 20.6714C18.6864 21.5707 16.8001 22.206 14.804 22.206C10.4492 22.206 6.61986 19.1811 4.42517 16.9987C3.84534 16.4226 3.55543 16.1352 3.37162 15.5689C3.23961 15.1655 3.23961 14.4426 3.37162 14.0392C3.55667 13.4729 3.84658 13.1842 4.4264 12.6081C5.533 11.5077 7.05412 10.1951 8.84787 9.16247M24.0565 18.0535C24.4673 17.6921 24.8436 17.3355 25.1816 17L25.1853 16.9963C25.7627 16.4214 26.0526 16.1327 26.2364 15.5701C26.3684 15.1667 26.3684 14.4426 26.2364 14.0392C26.0514 13.4741 25.7627 13.1855 25.1829 12.6093C22.9869 10.427 19.1601 7.40203 14.804 7.40203C14.387 7.40203 13.9758 7.42835 13.5704 7.48098M16.4362 16.6545C15.9583 17.0765 15.3357 17.2971 14.6988 17.2702C14.0619 17.2433 13.4601 16.9709 13.0196 16.5101C12.5791 16.0493 12.334 15.4359 12.3357 14.7984C12.3374 14.161 12.5858 13.5489 13.0288 13.0905" stroke="#4B4B4B" stroke-width="2" stroke-linecap="round" stroke-linejoin="round"/>
</svg>
